#!OML:ASF I:\Actors\actors\Patient Classification 1\Patient 1\Session 1\Subject1.ASF
:FULLY-SPECIFIED
:DEGREES
785
root 0.711555 17.7405 7.94602 6.78878 6.00967 -9.97777
lowerback 1.91803 0.438139 7.18408
upperback -4.86771 1.08831 2.44423
thorax -6.08985 0.264692 -1.54305
lowerneck -12.8966 -3.88072 -0.232656
upperneck 21.7512 -6.73621 5.78558
head 9.18052 -2.55163 1.22335
rclavicle -1.43249e-014 5.36719e-014
rhumerus 12.019 42.659 -79.6474
rradius 143.406
rwrist -6.773
rhand -19.5985 -44.6741
rfingers 7.12502
rthumb 6.72741 645.453
lclavicle -1.43249e-014 5.36719e-014
lhumerus -1.68538 -43.2953 95.6323
lradius 138.176
lwrist 40.5073
lhand -37.9434 -18.6029
lfingers 7.12502
lthumb -10.9847 11.0897
rfemur -7.51265 18.7399 26.9918
rtibia 9.1937
rfoot -14.2958 -22.6313
rtoes 2.45565
lfemur -6.04036 -29.4316 -3.15207
ltibia 2.13772
lfoot -6.83552 30.5744
ltoes -12.8064
786
root 0.701295 17.7388 7.93832 6.78973 6.13137 -10.0843
lowerback 2.05409 0.330535 7.12355
upperback -4.84539 0.957769 2.52895
thorax -6.15674 0.203752 -1.41305
lowerneck -12.6457 -3.96336 -0.488056
upperneck 21.2068 -6.7755 5.89146
head 8.95907 -2.6017 1.30156
rclavicle 3.06253e-015 2.98177e-015
rhumerus 13.0521 45.2389 -77.9056
rradius 145.011
rwrist -4.86352
rhand -21.1635 -46.671
rfingers 7.12502
rthumb 5.21651 643.413
lclavicle 3.06253e-015 2.98177e-015
lhumerus -0.75708 -46.4437 93.7533
lradius 140.133
lwrist 38.0973
lhand -40.0111 -20.267
lfingers 7.12502
lthumb -12.9785 9.30935
rfemur -7.53844 18.6983 27.1167
rtibia 9.13227
rfoot -14.3019 -22.6837
rtoes 2.58374
lfemur -6.13158 -29.5258 -2.92551
ltibia 2.08133
lfoot -6.67773 30.5842
ltoes -12.9214
787
root 0.692785 17.7359 7.93409 6.79049 6.22323 -10.157
lowerback 2.09859 0.294328 7.12309
upperback -4.82838 0.910491 2.49177
thorax -6.16727 0.179352 -1.44868
lowerneck -12.2206 -4.11691 -0.476195
upperneck 20.5517 -6.9403 5.90505
head 8.66221 -2.70597 1.29364
rclavicle -7.37367e-015 -5.28767e-014
rhumerus 13.8599 46.2078 -76.6804
rradius 145.753
rwrist -6.27284
rhand -21.9072 -50.5033
rfingers 7.12502
rthumb 4.49834 639.564
lclavicle -7.37367e-015 -5.28767e-014
lhumerus 0.699608 -49.1653 91.3514
lradius 141.33
lwrist 34.2768
lhand -42.068 -22.2948
lfingers 7.12502
lthumb -14.9607 7.14488
rfemur -7.52417 18.72 27.2143
rtibia 9.05542
rfoot -14.3521 -22.7509
rtoes 2.73654
lfemur -6.15646 -29.8072 -2.78178
ltibia 2.02249
lfoot -6.66231 30.7864
ltoes -12.7886
788
root 0.686907 17.7331 7.93082 6.76797 6.29487 -10.2153
lowerback 2.13278 0.317566 7.18046
upperback -4.80347 0.941248 2.39858
thorax -6.15615 0.190034 -1.58053
lowerneck -12.075 -4.32143 -0.574788
upperneck 20.1833 -7.19167 5.97901
head 8.526 -2.83885 1.30942
rclavicle 2.68981e-015 -2.34566e-014
rhumerus 14.5485 46.6596 -75.6164
rradius 145.905
rwrist -7.66993
rhand -23.7014 -50.7555
rfingers 7.12502
rthumb 2.76573 639.283
lclavicle 2.68981e-015 -2.34566e-014
lhumerus 2.74508 -51.1352 88.5645
lradius 141.907
lwrist 31.1066
lhand -43.6226 -24.642
lfingers 7.12502
lthumb -16.4579 4.67994
rfemur -7.44456 18.8045 27.3053
rtibia 8.94197
rfoot -14.4445 -22.8281
rtoes 3.25773
lfemur -6.14591 -30.1149 -2.69194
ltibia 1.99221
lfoot -6.74289 31.0208
ltoes -12.6104
789
root 0.682856 17.7313 7.92818 6.69803 6.33167 -10.2686
lowerback 2.1934 0.352054 7.23525
upperback -4.76704 0.991221 2.34893
thorax -6.14708 0.211741 -1.66712
lowerneck -12.0041 -4.39798 -0.758205
upperneck 19.9121 -7.2715 6.12839
head 8.43697 -2.88499 1.38234
rclavicle 7.92033e-015 3.69739e-014
rhumerus 15.5554 47.6026 -74.0518
rradius 146.157
rwrist -8.43839
rhand -25.181 -50.0101
rfingers 7.12502
rthumb 1.33677 640.014
lclavicle 7.92033e-015 3.69739e-014
lhumerus 4.98864 -52.7225 85.6805
lradius 142.415
lwrist 29.7775
lhand -44.812 -25.6461
lfingers 7.12502
lthumb -17.6028 3.57704
rfemur -7.29791 18.8935 27.4184
rtibia 8.81767
rfoot -14.4613 -22.9175
rtoes 3.60838
lfemur -6.06851 -30.2399 -2.65848
ltibia 1.97432
lfoot -6.77467 31.0982
ltoes -12.6712
790
root 0.679091 17.7301 7.92722 6.61976 6.31668 -10.3045
lowerback 2.23139 0.386971 7.22662
upperback -4.74353 1.04103 2.37185
thorax -6.14023 0.238095 -1.64243
lowerneck -11.7098 -4.32157 -1.10904
upperneck 19.5562 -7.14609 6.51413
head 8.28625 -2.83057 1.58915
rclavicle 1.54493e-014 1.23246e-014
rhumerus 17.1153 49.3373 -71.6992
rradius 146.588
rwrist -7.86711
rhand -26.2961 -50.0481
rfingers 7.12502
rthumb 0.259803 639.972
lclavicle 1.54493e-014 1.23246e-014
lhumerus 6.99032 -54.2889 82.9905
lradius 143.022
lwrist 29.276
lhand -45.4072 -25.6581
lfingers 7.12502
lthumb -18.1755 3.51277
rfemur -7.15944 18.9178 27.5229
rtibia 8.71327
rfoot -14.3172 -22.9642
rtoes 3.34423
lfemur -5.94368 -30.3003 -2.67573
ltibia 1.95722
lfoot -6.79854 31.1508
ltoes -12.504
791
root 0.674712 17.7287 7.92664 6.5768 6.26409 -10.3683
lowerback 2.21777 0.379763 7.17494
upperback -4.76094 1.03525 2.49479
thorax -6.1541 0.240366 -1.48463
lowerneck -11.4017 -4.21204 -1.44045
upperneck 19.4374 -6.94616 6.65888
head 8.19782 -2.7567 1.72033
rclavicle 1.33993e-014 -6.40087e-014
rhumerus 19.0447 51.3922 -68.9651
rradius 147.018
rwrist -7.05868
rhand -28.1908 -50.6962
rfingers 7.12502
rthumb -1.57023 639.33
lclavicle 1.33993e-014 -6.40087e-014
lhumerus 8.71607 -55.5292 80.5546
lradius 143.484
lwrist 28.7539
lhand -45.5004 -25.707
lfingers 7.12502
lthumb -18.2651 3.45545
rfemur -7.10293 18.9235 27.6335
rtibia 8.66853
rfoot -14.2134 -22.9278
rtoes 3.27383
lfemur -5.84849 -30.368 -2.63695
ltibia 1.92969
lfoot -6.76434 31.2729
ltoes -12.4357
792
root 0.671197 17.7273 7.92677 6.5433 6.19007 -10.4365
lowerback 2.14565 0.285634 7.06411
upperback -4.79333 0.909256 2.6929
thorax -6.16079 0.188055 -1.20621
lowerneck -11.2566 -4.11636 -1.71791
upperneck 19.7632 -6.74642 6.49398
head 8.27325 -2.69351 1.73653
rclavicle 3.44146e-015 -1.05356e-014
rhumerus 21.3356 53.4468 -66.0693
rradius 147.394
rwrist -7.01537
rhand -30.0326 -51.929
rfingers 7.12502
rthumb -3.34897 638.118
lclavicle 3.44146e-015 -1.05356e-014
lhumerus 10.1566 -56.1945 78.3293
lradius 143.849
lwrist 28.2424
lhand -45.8558 -25.625
lfingers 7.12502
lthumb -18.607 3.50506
rfemur -7.08491 18.9055 27.7316
rtibia 8.68669
rfoot -14.2239 -22.8187
rtoes 3.35637
lfemur -5.7353 -30.4294 -2.59555
ltibia 1.86338
lfoot -6.65194 31.4213
ltoes -12.7546
793
root 0.66966 17.7259 7.92833 6.50417 6.10631 -10.4625
lowerback 2.05207 0.268012 7.00396
upperback -4.80387 0.876221 2.73492
thorax -6.12123 0.17668 -1.12595
lowerneck -11.4054 -4.20744 -1.83571
upperneck 20.4127 -6.88723 6.44103
head 8.52792 -2.75399 1.72059
rclavicle 3.33586e-015 -2.10712e-014
rhumerus 23.8158 55.081 -63.073
rradius 147.609
rwrist -7.25101
rhand -31.3329 -53.8316
rfingers 7.12502
rthumb -4.60464 636.238
lclavicle 3.33586e-015 -2.10712e-014
lhumerus 11.9259 -57.2452 75.6794
lradius 144.244
lwrist 28.5083
lhand -47.3806 -27.5465
lfingers 7.12502
lthumb -20.0732 1.43659
rfemur -7.07159 18.8253 27.772
rtibia 8.74379
rfoot -14.2644 -22.6553
rtoes 3.38724
lfemur -5.58446 -30.5281 -2.62002
ltibia 1.77906
lfoot -6.6488 31.5821
ltoes -12.784
794
root 0.669525 17.7237 7.9314 6.45854 6.0172 -10.3979
lowerback 1.96624 0.257664 6.89453
upperback -4.82199 0.849634 2.73811
thorax -6.09306 0.169262 -1.0595
lowerneck -11.6373 -4.26798 -1.90612
upperneck 21.1866 -6.98969 6.32668
head 8.83702 -2.79414 1.67862
rclavicle 1.51263e-014 1.59028e-015
rhumerus 26.4716 56.5521 -59.8455
rradius 147.708
rwrist -7.48986
rhand -32.6263 -55.6016
rfingers 7.12502
rthumb -5.8534 634.499
lclavicle 1.51263e-014 1.59028e-015
lhumerus 13.8692 -58.4437 72.8327
lradius 144.663
lwrist 28.9201
lhand -49.0285 -29.4335
lfingers 7.12502
lthumb -21.6564 -0.624693
rfemur -7.03404 18.737 27.7088
rtibia 8.78444
rfoot -14.2583 -22.5175
rtoes 3.30674
lfemur -5.41103 -30.6528 -2.77209
ltibia 1.71839
lfoot -6.76469 31.7488
ltoes -12.4591
